<?xml version="1.0" encoding="UTF-8"?><svg xmlns="http://www.w3.org/2000/svg" viewBox="0 0 266.42 266.42"><defs><style>.d,.e{fill:#fff;}.e,.f{fill-rule:evenodd;}</style></defs><g id="a"/><g id="b"><g id="c"><g><path class="e" d="M133.21,92.39s-14.03,.13-25.05,2.75c-11.02,2.62-19.55,8.27-19.55,8.27,0,0-9.31-6.43-20.07-4.07-10.75,2.36-15.61,18.76-10.36,25.97,5.25,7.22,9.97,8,9.97,8-3.68,20.25-14.36,51.75-24.7,84.44,22.49,23.86,54.38,38.76,89.75,38.76s67.27-14.9,89.75-38.76c-10.34-32.69-21.02-64.2-24.7-84.44,0,0,4.72-.79,9.97-8,5.25-7.21,.39-23.61-10.36-25.97-10.76-2.36-20.07,4.07-20.07,4.07,0,0-8.53-5.64-19.55-8.27-11.02-2.62-25.04-2.75-25.04-2.75h0Z"/><path class="f" d="M133.21,133.21s7.5-.35,12.02,2.76c4.53,3.12,4,7.88,.06,7.76-3.94-.12-6.35-.35-7.58,3.11-1.24,3.47-4.5,4.17-4.5,4.17,0,0-3.26-.71-4.5-4.17-1.23-3.47-3.64-3.23-7.58-3.11-3.94,.12-4.47-4.64,.06-7.76,4.53-3.11,12.02-2.76,12.02-2.76h0Z"/><path class="f" d="M98.33,129.09c2.83,0,5.12,3.62,5.12,8.09s-2.29,8.1-5.12,8.1-5.12-3.62-5.12-8.1,2.29-8.09,5.12-8.09h0Z"/><path class="f" d="M168.09,129.09c-2.83,0-5.12,3.62-5.12,8.09s2.29,8.1,5.12,8.1,5.12-3.62,5.12-8.1-2.29-8.09-5.12-8.09h0Z"/><path class="d" d="M133.21,266.42C59.76,266.42,0,206.66,0,133.21S59.76,0,133.21,0s133.21,59.76,133.21,133.21-59.76,133.21-133.21,133.21Zm0-246.63c-62.54,0-113.42,50.88-113.42,113.42s50.88,113.42,113.42,113.42,113.42-50.88,113.42-113.42S195.75,19.79,133.21,19.79Z"/></g></g></g></svg>